<?xml version="1.0" ?><!DOCTYPE svg  PUBLIC '-//W3C//DTD SVG 1.1//EN'  'http://www.w3.org/Graphics/SVG/1.1/DTD/svg11.dtd'><svg height="512px" style="enable-background:new 0 0 512 512;" version="1.1" viewBox="0 0 512 512" width="512px" xml:space="preserve" xmlns="http://www.w3.org/2000/svg" xmlns:xlink="http://www.w3.org/1999/xlink"><g id="_x32_6-twitter_x2C__tweet"><g><g><path d="M375.303,375.621H256.002c-32.898,0-59.65-26.822-59.65-59.809v-29.911h178.951     c32.926,0,59.646-26.795,59.646-59.809c0-33.018-26.721-59.813-59.646-59.813H196.352V76.563     c0-33.014-26.723-59.812-59.653-59.812c-32.925,0-59.648,26.798-59.648,59.812v239.25c0,98.958,80.26,179.438,178.952,179.438     h119.301c32.926,0,59.646-26.801,59.646-59.816C434.949,402.42,408.229,375.621,375.303,375.621L375.303,375.621z      M375.303,375.621" style="fill:#03ACF8;"/></g></g></g><g id="Layer_1"/></svg>